<?xml version="1.0" encoding="UTF-8" standalone="no"?>
<!-- Created with Inkscape (http://www.inkscape.org/) -->

<svg
   version="1.1"
   id="svg98"
   width="793.70135"
   height="1122.52"
   viewBox="0 0 793.70135 1122.52"
   sodipodi:docname="invoice_grouped.svg"
   inkscape:version="1.2.2 (b0a8486541, 2022-12-01)"
   xmlns:inkscape="http://www.inkscape.org/namespaces/inkscape"
   xmlns:sodipodi="http://sodipodi.sourceforge.net/DTD/sodipodi-0.dtd"
   xmlns="http://www.w3.org/2000/svg"
   xmlns:svg="http://www.w3.org/2000/svg">
  <defs
     id="defs102" />
  <sodipodi:namedview
     id="namedview100"
     pagecolor="#ffffff"
     bordercolor="#000000"
     borderopacity="0.25"
     inkscape:showpageshadow="2"
     inkscape:pageopacity="0.0"
     inkscape:pagecheckerboard="0"
     inkscape:deskcolor="#d1d1d1"
     showgrid="false"
     inkscape:zoom="0.77949611"
     inkscape:cx="396.40993"
     inkscape:cy="459.9125"
     inkscape:window-width="1920"
     inkscape:window-height="1016"
     inkscape:window-x="1920"
     inkscape:window-y="27"
     inkscape:window-maximized="1"
     inkscape:current-layer="g106">
    <inkscape:page
       x="0"
       y="0"
       id="page104"
       width="793.70135"
       height="1122.52" />
  </sodipodi:namedview>
  <g
     id="g106"
     inkscape:groupmode="layer"
     inkscape:label="Page 1"
     transform="matrix(1.3333333,0,0,-1.3333333,0,1122.52)">
    <text
       xml:space="preserve"
       transform="matrix(1,0,0,-1,287.779,787.195)"
       style="font-variant:normal;font-weight:normal;font-size:17.2154px;font-family:LMRoman17;-inkscape-font-specification:LMRoman17-Regular;writing-mode:lr-tb;fill:#000000;fill-opacity:1;fill-rule:nonzero;stroke:none"
       id="text110"><tspan
         x="0 5.6397653 13.987513 21.884216 29.7792 34.077885 41.074223"
         y="0"
         sodipodi:role="line"
         id="tspan108">Invoice</tspan></text>
    <text
       xml:space="preserve"
       transform="matrix(1,0,0,-1,85.039,728.752)"
       style="font-variant:normal;font-weight:normal;font-size:10.9091px;font-family:LMRoman10;-inkscape-font-specification:LMRoman10-Regular;writing-mode:lr-tb;fill:#000000;fill-opacity:1;fill-rule:nonzero;stroke:none"
       id="text140"><tspan
         x="0 3.939276 9.6938267 15.157104 20.611654 23.631292 28.480387 36.973122 45.154945 51.214951 60.00005 66.365509 71.214607 75.487701 83.361885 88.816437 94.270988 99.72554 105.18008"
         y="0"
         sodipodi:role="line"
         id="tspan112">InvoiceNumber:2023-</tspan><tspan
         x="309.48401 317.36255 322.81711 328.87711 333.17966 339.23965 342.2702 346.51276 351.96732 357.72186 361.96442 369.84952 377.72806 383.18262 389.24261 393.54517 399.60516 402.63571 406.87827 412.33282 418.08737 425.97354 434.15536 439.60992 448.70047"
         y="18.610001"
         sodipodi:role="line"
         id="tspan114">Consultant:ConsultantName</tspan><tspan
         x="367.422 373.48199 377.72455 381.99765 386.84674 391.69583 399.57111 405.63113 408.66168 414.11621 418.9653 423.81442 429.87442 435.32898 438.35953 444.41953 449.26862"
         y="32.16"
         sodipodi:role="line"
         id="tspan116">Streetplaceholder</tspan><tspan
         x="386.54401 394.72583 399.57492 402.60547 408.06003 413.81458 420.18002 425.63458 429.90768 435.96768 441.72769 447.4877"
         y="45.709"
         sodipodi:role="line"
         id="tspan118">Neighborhood</tspan><tspan
         x="350.302 358.18054 361.21109 365.14819 374.53876 379.99329 386.06421 395.75696 402.87512 408.32968 412.63223 416.87479 422.32935 429.00351 436.88208 442.63116 448.69116"
         y="59.257999"
         sodipodi:role="line"
         id="tspan120">CityandPostalCode</tspan><tspan
         x="414.12 421.99857 427.45309 433.51309 439.26767 443.51019 447.78329"
         y="72.806999"
         sodipodi:role="line"
         id="tspan122">Country</tspan><tspan
         x="293.54401 301.42255 306.87711 312.63165 316.87421 322.32877 327.17786 335.06403 343.24585 348.70041 355.36368 363.23788 371.72296 377.17752 386.27573 391.73026 400.81754 406.27209 411.72665 417.18118 422.63574 431.72302 437.17758 442.63211 448.08667"
         y="86.356003"
         sodipodi:role="line"
         id="tspan124">ContactNo.:+0000000000000</tspan><tspan
         x="0 7.7269154 10.757463 13.788012 20.45129 27.424387 32.878937"
         y="104.966"
         sodipodi:role="line"
         id="tspan126">BillTo:</tspan><tspan
         x="0 6.0600052 9.0905533 12.121101 18.78438 24.844385 30.90439 35.20694 38.237488 44.308399 49.146587 53.460045 61.395325 67.45533 72.909882 82.000435 90.482254 93.512802 96.54335 102.60336 107.45245"
         y="123.576"
         sodipodi:role="line"
         id="tspan128">billbusinessnameline1</tspan><tspan
         x="0 6.0600052 9.0905533 12.121101 18.78438 24.23893 30.298935 36.35894 40.632034 45.481129 49.783676 57.729866 60.760414 63.790962 69.850967 74.700066"
         y="137.125"
         sodipodi:role="line"
         id="tspan130">billaddressline2</tspan><tspan
         x="0 6.0600052 9.0905533 12.121101 18.78438 24.23893 30.298935 36.35894 40.632034 45.481129 49.783676 57.729866 60.760414 63.790962 69.850967 74.700066"
         y="150.674"
         sodipodi:role="line"
         id="tspan132">billaddressline3</tspan><tspan
         x="0 6.0600052 9.0905533 12.121101 18.78438 24.844385 30.90439 35.20694 41.881126 44.911674 47.942223 54.002228 58.851322"
         y="164.224"
         sodipodi:role="line"
         id="tspan134">billbusiline4</tspan><tspan
         x="0 6.0600052 9.0905533 12.121101 18.78438 24.844385 30.90439 35.20694 41.881126 44.911674 47.942223 54.002228 58.851322"
         y="177.77299"
         sodipodi:role="line"
         id="tspan136">billbusiline5</tspan><tspan
         x="363.392 371.72546 377.18002 381.42255 386.27167 394.14584 399.6004 408.69858 416.57495 422.63495 431.72223 437.17679 442.63135 448.08588"
         y="202.836"
         sodipodi:role="line"
         id="tspan138">Date:31Aug2022</tspan></text>
    <g
       id="g142"
       transform="translate(120.482,508.62)">
      <path
         d="M 0,0 H 382.658"
         style="fill:none;stroke:#000000;stroke-width:0.868;stroke-linecap:butt;stroke-linejoin:miter;stroke-miterlimit:10;stroke-dasharray:none;stroke-opacity:1"
         id="path144" />
    </g>
    <text
       xml:space="preserve"
       transform="matrix(1,0,0,-1,120.482,495.649)"
       style="font-variant:normal;font-weight:normal;font-size:10.9091px;font-family:LMRoman10;-inkscape-font-specification:LMRoman10-Regular;writing-mode:lr-tb;fill:#000000;fill-opacity:1;fill-rule:nonzero;stroke:none"
       id="text148"><tspan
         x="0 6.0600052 10.9091 15.182195 20.940018 23.970566 28.81966 33.668755 331.75336 339.93518 349.93558 358.42065 366.60248 374.7843"
         y="0"
         sodipodi:role="line"
         id="tspan146">ServicesAMOUNT</tspan></text>
    <g
       id="g150"
       transform="translate(120.482,489.435)">
      <path
         d="M 0,0 H 382.658"
         style="fill:none;stroke:#000000;stroke-width:0.542;stroke-linecap:butt;stroke-linejoin:miter;stroke-miterlimit:10;stroke-dasharray:none;stroke-opacity:1"
         id="path152" />
    </g>
    <text
       xml:space="preserve"
       transform="matrix(1,0,0,-1,120.482,476.627)"
       style="font-variant:normal;font-weight:normal;font-size:10.9091px;font-family:LMRoman10;-inkscape-font-specification:LMRoman10-Regular;writing-mode:lr-tb;fill:#000000;fill-opacity:1;fill-rule:nonzero;stroke:none"
       id="text178"><tspan
         x="0 7.878552 13.333102 19.393106 23.695656 29.755661 32.786209 37.028759 42.483307 48.543312 53.392406 62.782963 70.661514 76.721519 82.176071 86.449165 91.903709 96.752808"
         y="0"
         sodipodi:role="line"
         id="tspan154">ConsultancyCharges</tspan><tspan
         x="5.6690001 14.75628 20.972286 25.821381 35.514114 40.968666 46.423214 51.877766 60.975956 65.218506 74.305786 79.760338 88.847618 95.063622 99.912712 109.60545 115.06 120.51455 125.9691"
         y="13.549"
         sodipodi:role="line"
         id="tspan156">1Feb2022to28Feb2022</tspan><tspan
         x="5.6690001 14.002461 18.851557 21.882105 24.912653 30.365021 35.214115 39.487209 48.877762 54.937767 60.392319 64.634865 69.483963 77.369057 83.574158 88.423248 94.483253 98.756348 104.81635 110.2709 114.544 123.94547 129.40001 134.85457 140.30911"
         y="27.098"
         sodipodi:role="line"
         id="tspan158">Deliverydate:February2022</tspan><tspan
         x="22.677 28.737005 33.586102 37.859196 43.617016 46.647564 51.496662 56.345757 60.648304 163.16985 168.62439 174.07895 179.53349 242.38081 247.83537 250.86592 268.27686 276.00375 284.03394"
         y="40.647999"
         sodipodi:role="line"
         id="tspan160">Services:1/216.4BRL</tspan><tspan
         x="22.677 28.13155 32.3741 38.434105 43.283199 47.556293 157.7142 163.16875 168.62331 174.07785 179.53241 231.47063 236.92519 242.37973 247.83427 250.86482 268.27576 276.00266 284.03287"
         y="54.196999"
         sodipodi:role="line"
         id="tspan162">other:19/21271.4BRL</tspan><tspan
         x="5.6690001 14.75628 23.846834 29.301384 35.066841 39.309391 45.369396 49.611946 53.914494 58.157043 196.94043 204.66734 212.69754 231.47209 236.92665 242.3812 247.83575 250.8663 268.27722 277.3645 282.81906 285.84961 291.30414 296.7587 302.21326 311.31143 345.54202 350.99655 360.08383 368.26566 374.32568"
         y="67.746002"
         sodipodi:role="line"
         id="tspan164">1month(s):BRL277.9/5.1219=54USD</tspan><tspan
         x="0 7.878552 13.333102 17.635651 25.510931 34.609119 40.063671 46.123676 50.972771 54.003319 57.033867 63.093872 67.942963 340.07809 345.53265 350.98721 360.08539 368.26721 374.32721"
         y="94.844002"
         sodipodi:role="line"
         id="tspan166">Cost2oneliner120USD</tspan><tspan
         x="0 8.4850979 14.545103 19.394197 22.424746 25.455294 31.515299 36.364395 44.270218 52.148769 57.603321 61.905869 69.792061 196.94853 204.67545 212.70563 245.41112 250.86566 268.27658 277.37479 282.82932 285.84897 291.30353 296.75806 302.21262 311.31079 345.54138 350.99594 360.08322 368.26505 374.32504"
         y="121.943"
         sodipodi:role="line"
         id="tspan168">OnelinerCost1BRL60/5.1219=12USD</tspan><tspan
         x="5.6690001 14.229371 18.502464 23.957016 30.017021 36.382481 41.231575 50.924309 58.802864 64.257416 68.559959 76.446152 245.41721 250.87175 268.28268 276.00958 284.03976"
         y="149.041"
         sodipodi:role="line"
         id="tspan170">GroupedCost150BRL</tspan><tspan
         x="5.6690001 11.729005 16.5781 21.427195 26.881744 32.94175 42.634487 48.089035 55.065403 60.519955 64.793053 70.247597 76.307602 239.96046 245.41502 250.86957 268.28049 276.00742 284.0376"
         y="162.59"
         sodipodi:role="line"
         id="tspan172">Secondofgroup100BRL</tspan><tspan
         x="5.6690001 14.229371 18.502464 23.957016 30.017021 36.382481 41.231575 50.924309 55.773407 61.227955 65.530502 73.416695 245.40956 250.86412 268.27502 276.00195 284.03214"
         y="176.13901"
         sodipodi:role="line"
         id="tspan174">Groupedcost380BRL</tspan><tspan
         x="0 8.5603704 12.833466 18.288015 24.348021 30.71348 35.562576 45.25531 53.133862 58.588413 62.890961 67.133507 196.94525 204.67216 212.70236 239.9642 245.41875 250.87331 268.27332 277.37149 282.82605 285.8566 291.31116 296.76572 302.22025 311.30753 345.53812 350.99265 360.07993 368.26175 374.32178"
         y="189.689"
         sodipodi:role="line"
         id="tspan176">GroupedCostsBRL230/5.1219=46USD</tspan></text>
    <text
       xml:space="preserve"
       transform="matrix(1,0,0,-1,120.482,259.84)"
       style="font-variant:normal;font-weight:bold;font-size:10.9091px;font-family:LMRoman10;-inkscape-font-specification:LMRoman10-Bold;writing-mode:lr-tb;fill:#000000;fill-opacity:1;fill-rule:nonzero;stroke:none"
       id="text182"><tspan
         x="0 8.7272797 18.151651 25.831657 35.316029 337.62573 343.89847 350.1712"
         y="0"
         sodipodi:role="line"
         id="tspan180">TOTAL232</tspan></text>
    <text
       xml:space="preserve"
       transform="matrix(1,0,0,-1,480.564,259.84)"
       style="font-variant:normal;font-weight:normal;font-size:10.9091px;font-family:LMRoman10;-inkscape-font-specification:LMRoman10-Regular;writing-mode:lr-tb;fill:#000000;fill-opacity:1;fill-rule:nonzero;stroke:none"
       id="text186"><tspan
         x="0 8.1818247 14.24183"
         y="0"
         sodipodi:role="line"
         id="tspan184">USD</tspan></text>
    <g
       id="g188"
       transform="translate(120.482,253.463)">
      <path
         d="M 0,0 H 382.658"
         style="fill:none;stroke:#000000;stroke-width:0.868;stroke-linecap:butt;stroke-linejoin:miter;stroke-miterlimit:10;stroke-dasharray:none;stroke-opacity:1"
         id="path190" />
    </g>
    <text
       xml:space="preserve"
       transform="matrix(1,0,0,-1,493.098,187.519)"
       style="font-variant:normal;font-weight:normal;font-size:10.9091px;font-family:LMRoman10;-inkscape-font-specification:LMRoman10-Regular;writing-mode:lr-tb;fill:#000000;fill-opacity:1;fill-rule:nonzero;stroke:none"
       id="text194"><tspan
         x="0 6.0600052 9.0905533 14.545103 20.605108 26.059658 30.302208 36.362213 40.635307"
         y="0"
         sodipodi:role="line"
         id="tspan192">Signature</tspan></text>
    <text
       xml:space="preserve"
       transform="matrix(1,0,0,-1,85.039,162.456)"
       style="font-variant:normal;font-weight:bold;font-size:14.3462px;font-family:LMRoman12;-inkscape-font-specification:LMRoman12-Bold;writing-mode:lr-tb;fill:#000000;fill-opacity:1;fill-rule:nonzero;stroke:none"
       id="text198"><tspan
         x="0 16.670284 21.153471 27.74555 40.489281 46.50034 55.466713 61.832123 68.108582 74.700661 83.667038 90.840141 97.1166 101.59978 109.66953 118.6359"
         y="0"
         sodipodi:role="line"
         id="tspan196">WireInstructions</tspan></text>
    <text
       xml:space="preserve"
       transform="matrix(1,0,0,-1,214.725,162.456)"
       style="font-variant:normal;font-weight:normal;font-size:14.3462px;font-family:LMRoman12;-inkscape-font-specification:LMRoman12-Regular;writing-mode:lr-tb;fill:#000000;fill-opacity:1;fill-rule:nonzero;stroke:none"
       id="text202"><tspan
         x="0"
         y="0"
         id="tspan200">/</tspan></text>
    <text
       xml:space="preserve"
       transform="matrix(1,0,0,-1,226.431,162.456)"
       style="font-variant:normal;font-weight:normal;font-size:10.9091px;font-family:LMRoman10;-inkscape-font-specification:LMRoman10-Regular;writing-mode:lr-tb;fill:#000000;fill-opacity:1;fill-rule:nonzero;stroke:none"
       id="text206"><tspan
         x="0 7.7269154 13.181465 19.24147 28.632025 36.519302 41.368397 46.206585 51.661133 57.732048 63.486599 71.361877 75.301155 81.36116 84.693886 90.148438 94.421532 103.51208 108.96664 113.20918 116.23973 121.69428"
         y="0"
         sodipodi:role="line"
         id="tspan204">BankAccountInformation</tspan></text>
    <text
       xml:space="preserve"
       transform="matrix(1,0,0,-1,85.039,143.447)"
       style="font-variant:normal;font-weight:normal;font-size:11.9552px;font-family:LMRoman12;-inkscape-font-specification:LMRoman12-Regular;writing-mode:lr-tb;fill:#000000;fill-opacity:1;fill-rule:nonzero;stroke:none"
       id="text210"><tspan
         x="0 8.2897358 13.492639 19.996267 25.199171 31.702799 36.905701 40.157516 46.010784 50.563324"
         y="0"
         sodipodi:role="line"
         id="tspan208">Benefciary</tspan></text>
    <text
       xml:space="preserve"
       transform="matrix(1,0,0,-1,145.789,143.447)"
       style="font-variant:normal;font-weight:bold;font-size:11.9552px;font-family:LMRoman12;-inkscape-font-specification:LMRoman12-Bold;writing-mode:lr-tb;fill:#000000;fill-opacity:1;fill-rule:nonzero;stroke:none"
       id="text214"><tspan
         x="0 9.5605736 16.098873 23.570873 30.668674"
         y="0"
         sodipodi:role="line"
         id="tspan212">Bank:</tspan></text>
    <text
       xml:space="preserve"
       transform="matrix(1,0,0,-1,102.849,129.898)"
       style="font-variant:normal;font-weight:normal;font-size:10.9091px;font-family:LMRoman10;-inkscape-font-specification:LMRoman10-Regular;writing-mode:lr-tb;fill:#000000;fill-opacity:1;fill-rule:nonzero;stroke:none"
       id="text218"><tspan
         x="0 6.0600052 17.272379 21.211655 28.333115 36.211666"
         y="0"
         sodipodi:role="line"
         id="tspan216">SWIFT:</tspan></text>
    <text
       xml:space="preserve"
       transform="matrix(1,0,0,-1,145.728,129.898)"
       style="font-variant:normal;font-weight:bold;font-size:10.9091px;font-family:LMRoman10;-inkscape-font-specification:LMRoman10-Bold;writing-mode:lr-tb;fill:#000000;fill-opacity:1;fill-rule:nonzero;stroke:none"
       id="text222"><tspan
         x="0 6.9698238 19.939653 24.697111 32.590935 45.496403 54.557499 63.981873 73.602608"
         y="0"
         sodipodi:role="line"
         id="tspan220">SWIFTCODE</tspan></text>
    <text
       xml:space="preserve"
       transform="matrix(1,0,0,-1,102.849,116.349)"
       style="font-variant:normal;font-weight:normal;font-size:10.9091px;font-family:LMRoman10;-inkscape-font-specification:LMRoman10-Regular;writing-mode:lr-tb;fill:#000000;fill-opacity:1;fill-rule:nonzero;stroke:none"
       id="text226"><tspan
         x="0 8.1818247 13.636375 22.726929 27.576023"
         y="0"
         sodipodi:role="line"
         id="tspan224">Name:</tspan></text>
    <text
       xml:space="preserve"
       transform="matrix(1,0,0,-1,138.303,116.349)"
       style="font-variant:normal;font-weight:bold;font-size:10.9091px;font-family:LMRoman10;-inkscape-font-specification:LMRoman10-Bold;writing-mode:lr-tb;fill:#000000;fill-opacity:1;fill-rule:nonzero;stroke:none"
       id="text230"><tspan
         x="0 8.9236441 18.408016 28.226206 42.237854 52.056042 61.540417 73.449883"
         y="0"
         sodipodi:role="line"
         id="tspan228">BANKNAME</tspan></text>
    <text
       xml:space="preserve"
       transform="matrix(1,0,0,-1,102.849,102.8)"
       style="font-variant:normal;font-weight:normal;font-size:10.9091px;font-family:LMRoman10;-inkscape-font-specification:LMRoman10-Regular;writing-mode:lr-tb;fill:#000000;fill-opacity:1;fill-rule:nonzero;stroke:none"
       id="text234"><tspan
         x="0 7.8763704 13.936376 19.99638 24.269474 29.11857 33.42112 37.723667 45.608765 53.335682 61.517506 69.699333 81.817162 89.998985 98.332443 106.66591 114.6961 122.11974 128.17975 134.23975 140.91394 148.64085 156.82268 165.0045 177.12233 185.00089 193.48598 201.6678 209.84962 217.72818 224.85292"
         y="0"
         sodipodi:role="line"
         id="tspan232">Address:BANKADDRESS,BANKCOUNTRY</tspan></text>
    <text
       xml:space="preserve"
       transform="matrix(1,0,0,-1,85.039,83.791)"
       style="font-variant:normal;font-weight:bold;font-size:11.9552px;font-family:LMRoman12;-inkscape-font-specification:LMRoman12-Bold;writing-mode:lr-tb;fill:#000000;fill-opacity:1;fill-rule:nonzero;stroke:none"
       id="text238"><tspan
         x="0 9.7136002 16.4384 23.9104 29.214922 36.686924 40.422924 45.653324 52.19162 59.293011"
         y="0"
         sodipodi:role="line"
         id="tspan236">Consultant</tspan></text>
    <text
       xml:space="preserve"
       transform="matrix(1,0,0,-1,153.462,83.791)"
       style="font-variant:normal;font-weight:normal;font-size:11.9552px;font-family:LMRoman12;-inkscape-font-specification:LMRoman12-Regular;writing-mode:lr-tb;fill:#000000;fill-opacity:1;fill-rule:nonzero;stroke:none"
       id="text242"><tspan
         x="0 9.7506609 18.040398 23.243299 29.746929 34.949833 41.453461 46.656364 49.908176 55.761444 60.313984 70.401779 78.856499 85.36013 89.977226 94.52977 100.38303 110.13847 115.32942 123.79131"
         y="0"
         sodipodi:role="line"
         id="tspan240">/BenefciaryCustomer:</tspan></text>
    <text
       xml:space="preserve"
       transform="matrix(1,0,0,-1,103.115,70.242)"
       style="font-variant:normal;font-weight:normal;font-size:10.9091px;font-family:LMRoman10;-inkscape-font-specification:LMRoman10-Regular;writing-mode:lr-tb;fill:#000000;fill-opacity:1;fill-rule:nonzero;stroke:none"
       id="text248"><tspan
         x="0 8.1818247 13.636375 22.726929 27.576023 35.450211 43.328762 48.783314 54.843319 59.145866 65.205872 68.23642 72.478966 77.933517 83.698982 91.574257 99.756081 105.21063 114.30119"
         y="0"
         sodipodi:role="line"
         id="tspan244">Name:ConsultantName</tspan><tspan
         x="-0.266 3.6732759 11.400191 19.582016 27.763842"
         y="13.549"
         sodipodi:role="line"
         id="tspan246">IBAN:</tspan></text>
    <text
       xml:space="preserve"
       transform="matrix(1,0,0,-1,137.545,56.693)"
       style="font-variant:normal;font-weight:bold;font-size:10.9091px;font-family:LMRoman10;-inkscape-font-specification:LMRoman10-Bold;writing-mode:lr-tb;fill:#000000;fill-opacity:1;fill-rule:nonzero;stroke:none"
       id="text252"><tspan
         x="0 8.9236441 14.502558 20.08147 25.649475 31.22839 36.807304 42.375309 47.954224 53.533134 59.112049 64.680054 70.258965 75.837883 81.405884 86.984802 92.563713 98.142624 103.71063 109.28954 114.86846 120.43646 126.01538 131.59428 137.1732 142.74121 148.32013 153.89903 159.46704 165.04596 170.62486 176.20378 182.47652 188.74925"
         y="0"
         sodipodi:role="line"
         id="tspan250">B..............................222</tspan></text>
    <path
       style="opacity:0.994239;fill:none;stroke:#df003b;stroke-width:0.75"
       d="m 107.86364,342.65327 v -62.65515 l 408.27791,0"
       id="path624" />
    <path
       style="opacity:0.994239;fill:none;stroke:#df003b;stroke-width:0.75"
       d="m 516.14155,274.61592 -0.64457,69.89637 -409.74911,0"
       id="path626" />
  </g>
</svg>
