<?xml version="1.0" encoding="UTF-8" standalone="no"?>
<!-- Created with Inkscape (http://www.inkscape.org/) -->

<svg
   version="1.1"
   id="svg253"
   width="793.70135"
   height="1122.52"
   viewBox="0 0 793.70135 1122.52"
   sodipodi:docname="invoice_oneliner.svg"
   inkscape:version="1.2.2 (b0a8486541, 2022-12-01)"
   xmlns:inkscape="http://www.inkscape.org/namespaces/inkscape"
   xmlns:sodipodi="http://sodipodi.sourceforge.net/DTD/sodipodi-0.dtd"
   xmlns="http://www.w3.org/2000/svg"
   xmlns:svg="http://www.w3.org/2000/svg">
  <defs
     id="defs257" />
  <sodipodi:namedview
     id="namedview255"
     pagecolor="#ffffff"
     bordercolor="#000000"
     borderopacity="0.25"
     inkscape:showpageshadow="2"
     inkscape:pageopacity="0.0"
     inkscape:pagecheckerboard="0"
     inkscape:deskcolor="#d1d1d1"
     showgrid="false"
     inkscape:zoom="0.75722479"
     inkscape:cx="365.80947"
     inkscape:cy="561.92033"
     inkscape:window-width="1592"
     inkscape:window-height="752"
     inkscape:window-x="50"
     inkscape:window-y="114"
     inkscape:window-maximized="0"
     inkscape:current-layer="g261">
    <inkscape:page
       x="0"
       y="0"
       id="page259"
       width="793.70135"
       height="1122.52" />
  </sodipodi:namedview>
  <g
     id="g261"
     inkscape:groupmode="layer"
     inkscape:label="Page 1"
     transform="matrix(1.3333333,0,0,-1.3333333,0,1122.52)">
    <text
       xml:space="preserve"
       transform="matrix(1,0,0,-1,287.779,755.409)"
       style="font-variant:normal;font-weight:normal;font-size:17.2154px;font-family:LMRoman17;-inkscape-font-specification:LMRoman17-Regular;writing-mode:lr-tb;fill:#000000;fill-opacity:1;fill-rule:nonzero;stroke:none"
       id="text265"><tspan
         x="0 5.6397653 13.987513 21.884216 29.7792 34.077885 41.074223"
         y="0"
         sodipodi:role="line"
         id="tspan263">Invoice</tspan></text>
    <text
       xml:space="preserve"
       transform="matrix(1,0,0,-1,85.039,734.007)"
       style="font-variant:normal;font-weight:normal;font-size:10.9091px;font-family:LMRoman10;-inkscape-font-specification:LMRoman10-Regular;writing-mode:lr-tb;fill:#000000;fill-opacity:1;fill-rule:nonzero;stroke:none"
       id="text295"><tspan
         x="0 3.939276 9.6938267 15.157104 20.611654 23.631292 28.480387 36.973122 45.154945 51.214951 60.00005 66.365509 71.214607 75.487701 83.361885 88.816437 94.270988 99.72554 105.18008 108.81609"
         y="0"
         sodipodi:role="line"
         id="tspan267">InvoiceNumber:2022-6</tspan><tspan
         x="309.48401 317.36255 322.81711 328.87711 333.17966 339.23965 342.2702 346.51276 351.96732 357.72186 361.96442 369.84952 377.72806 383.18262 389.24261 393.54517 399.60516 402.63571 406.87827 412.33282 418.08737 425.97354 434.15536 439.60992 448.70047"
         y="20.323999"
         sodipodi:role="line"
         id="tspan269">Consultant:ConsultantName</tspan><tspan
         x="365.84698 372.8179 380.0943 387.97284 394.63611 400.09067 405.54523 410.99976 416.45432 421.90887 427.3634 432.81796 438.27252 443.72705 449.18161"
         y="33.873001"
         sodipodi:role="line"
         id="tspan271">VAT:12345678901</tspan><tspan
         x="425.323 431.383 435.62555 439.89865 444.74774 449.59683"
         y="47.422001"
         sodipodi:role="line"
         id="tspan273">Street</tspan><tspan
         x="433.341 441.21954 444.25009 448.18719"
         y="60.972"
         sodipodi:role="line"
         id="tspan275">City</tspan><tspan
         x="331.48401 339.36255 344.81711 350.87711 356.63165 360.87421 365.14731 374.54877 380.00333 386.06332 395.75604 402.87424 408.3288 412.63135 416.8739 422.32843 429.00262 436.88116 442.63028 448.69028"
         y="74.521004"
         sodipodi:role="line"
         id="tspan277">CountryandPostalCode</tspan><tspan
         x="293.81601 301.69455 307.14911 312.90366 317.14621 322.60074 327.44986 335.33603 343.51785 348.97241 355.63568 363.50989 371.99496 377.44952 386.5477 392.00226 401.08954 406.5441 411.99866 417.45319 422.90775 431.99503 437.44958 442.90411 448.35867"
         y="88.07"
         sodipodi:role="line"
         id="tspan279">ContactNo.:+0000000000000</tspan><tspan
         x="0 7.7269154 10.757463 13.788012 20.45129 27.424387 32.878937"
         y="108.394"
         sodipodi:role="line"
         id="tspan281">BillTo:</tspan><tspan
         x="0 6.0600052 9.0905533 12.121101 18.78438 24.844385 30.90439 35.20694 38.237488 44.308399 49.146587 53.460045 61.395325 67.45533 72.909882 82.000435 90.482254 93.512802 96.54335 102.60336 111.09609"
         y="128.718"
         sodipodi:role="line"
         id="tspan283">billbusinessnameline1</tspan><tspan
         x="0 6.0600052 9.0905533 12.121101 18.78438 24.23893 30.298935 36.35894 40.632034 45.481129 49.783676 57.729866 60.760414 63.790962 69.850967 78.332794"
         y="142.267"
         sodipodi:role="line"
         id="tspan285">billaddressline2</tspan><tspan
         x="0 6.0600052 9.0905533 12.121101 18.78438 24.23893 30.298935 36.35894 40.632034 45.481129 49.783676 57.729866 60.760414 63.790962 69.850967 78.332794"
         y="155.81599"
         sodipodi:role="line"
         id="tspan287">billaddressline3</tspan><tspan
         x="0 6.0600052 9.0905533 12.121101 18.78438 24.844385 30.90439 35.20694 41.881126 44.911674 47.942223 54.002228 62.484051"
         y="169.36501"
         sodipodi:role="line"
         id="tspan289">billbusiline4</tspan><tspan
         x="0 6.0600052 9.0905533 12.121101 18.78438 24.844385 30.90439 35.20694 41.881126 44.911674 47.942223 54.002228 62.484051"
         y="182.914"
         sodipodi:role="line"
         id="tspan291">billbusiline5</tspan><tspan
         x="365.33099 373.66446 379.11902 383.36157 388.21066 396.08484 401.5394 410.63757 416.24377 422.30377 431.99652 437.45105 442.90561 448.36017"
         y="203.23801"
         sodipodi:role="line"
         id="tspan293">Date:30Jun2022</tspan></text>
    <g
       id="g297"
       transform="translate(113.452,518.843)">
      <path
         d="M 0,0 H 396.718"
         style="fill:none;stroke:#000000;stroke-width:0.868;stroke-linecap:butt;stroke-linejoin:miter;stroke-miterlimit:10;stroke-dasharray:none;stroke-opacity:1"
         id="path299" />
    </g>
    <text
       xml:space="preserve"
       transform="matrix(1,0,0,-1,113.452,505.873)"
       style="font-variant:normal;font-weight:normal;font-size:10.9091px;font-family:LMRoman10;-inkscape-font-specification:LMRoman10-Regular;writing-mode:lr-tb;fill:#000000;fill-opacity:1;fill-rule:nonzero;stroke:none"
       id="text303"><tspan
         x="0 6.0600052 10.9091 15.182195 20.940018 23.970566 28.81966 33.668755 345.80429 353.98611 363.98648 372.47159 380.65341 388.83524"
         y="0"
         sodipodi:role="line"
         id="tspan301">ServicesAMOUNT</tspan></text>
    <g
       id="g305"
       transform="translate(113.452,499.659)">
      <path
         d="M 0,0 H 396.718"
         style="fill:none;stroke:#000000;stroke-width:0.542;stroke-linecap:butt;stroke-linejoin:miter;stroke-miterlimit:10;stroke-dasharray:none;stroke-opacity:1"
         id="path307" />
    </g>
    <text
       xml:space="preserve"
       transform="matrix(1,0,0,-1,113.452,486.851)"
       style="font-variant:normal;font-weight:normal;font-size:10.9091px;font-family:LMRoman10;-inkscape-font-specification:LMRoman10-Regular;writing-mode:lr-tb;fill:#000000;fill-opacity:1;fill-rule:nonzero;stroke:none"
       id="text333"><tspan
         x="0 7.878552 13.333102 19.393106 23.695656 29.755661 32.786209 37.028759 42.483307 48.543312 53.392406 62.782963 70.661514 76.721519 82.176071 86.449165 91.903709 96.752808"
         y="0"
         sodipodi:role="line"
         id="tspan309">ConsultancyCharges</tspan><tspan
         x="5.6690001 14.002461 18.851557 21.882105 24.912653 30.365021 35.214115 39.487209 48.877762 54.937767 60.392319 64.634865 69.483963 77.369057 82.823608 91.910889 101.91126 107.36581 111.63891 116.18255 125.88619 131.34074 136.79529 142.24985"
         y="13.549"
         sodipodi:role="line"
         id="tspan311">Deliverydate:31March2022</tspan><tspan
         x="22.677 28.737005 33.586102 37.859196 43.617016 46.647564 51.496662 56.345757 60.648304 165.11166 170.56621 176.02077 181.47531 238.86809 244.32263 249.77719 255.23174 258.2623 275.67322 283.40012 291.43033"
         y="27.099001"
         sodipodi:role="line"
         id="tspan313">Services:2/21171.4BRL</tspan><tspan
         x="22.677 28.13155 32.3741 38.434105 43.283199 47.556293 159.65602 165.11058 170.56512 176.01967 181.47423 233.41245 238.867 244.32155 249.77609 255.23065 258.2612 275.67212 283.39905 291.42923"
         y="40.647999"
         sodipodi:role="line"
         id="tspan315">other:17/213238.1BRL</tspan><tspan
         x="198.883 206.60991 214.64011 233.41466 238.86922 244.32376 249.77832 255.23286 258.26343 275.67435 284.76163 290.21616 293.2467 298.70126 304.15582 309.61035 318.69763 354.13913 359.59369 365.04822 374.14642 382.32825 388.38824"
         y="54.196999"
         sodipodi:role="line"
         id="tspan317">BRL3409.5/5.1594=661USD</tspan><tspan
         x="0 8.4850979 14.545103 19.394197 22.424746 25.455294 31.515299 36.364395 44.270218 52.148769 57.603321 61.905869 69.792061 348.6832 354.13776 359.59229 365.04684 374.14505 382.32687 388.38687"
         y="81.294998"
         sodipodi:role="line"
         id="tspan319">OnelinerCost16000USD</tspan><tspan
         x="0 7.878552 13.333102 17.635651 25.510931 34.609119 40.063671 46.123676 50.972771 54.003319 57.033867 63.093872 67.942963 198.88162 206.60854 214.63872 236.44601 241.90056 247.35512 252.80966 258.26422 275.67514 284.76242 290.21698 293.24753 298.70206 304.15662 309.61118 318.69846 348.68539 354.13992 359.59448 365.04904 374.14722 382.32904 388.38904"
         y="94.844002"
         sodipodi:role="line"
         id="tspan321">Cost2onelinerBRL10000/5.1594=1938USD</tspan><tspan
         x="0 7.878552 13.333102 17.635651 25.510931 30.965481 37.025486 41.87458 44.905128 47.935677 53.995682 58.844776 66.761513 198.88162 206.60854 214.63872 236.44601 241.90056 247.35512 252.80966 258.26422 275.67514 284.76242 290.21698 293.24753 298.70206 304.15662 309.61118 318.69846 348.68539 354.13992 359.59448 365.04904 374.14722 382.32904 388.38904"
         y="108.394"
         sodipodi:role="line"
         id="tspan323">Costoneliner3BRL10000/5.1594=1938USD</tspan><tspan
         x="5.6690001 14.229371 18.502464 23.957016 30.017021 36.382481 41.231575 50.924309 58.802864 64.257416 68.559959 76.446152 247.34811 252.80266 258.2572 275.66812 283.84995 289.90997"
         y="135.492"
         sodipodi:role="line"
         id="tspan325">GroupedCost1500USD</tspan><tspan
         x="5.6690001 11.729005 16.5781 21.427195 26.881744 32.94175 42.634487 48.089035 55.065403 60.519955 64.793053 70.247597 76.307602 241.90228 247.35684 252.81139 258.26593 275.67685 283.85867 289.9187"
         y="149.041"
         sodipodi:role="line"
         id="tspan327">Secondofgroup1000USD</tspan><tspan
         x="5.6690001 14.229371 18.502464 23.957016 30.017021 36.382481 41.231575 50.924309 55.773407 61.227955 65.530502 73.416695 252.80594 258.2605 275.67142 283.85324 289.91324"
         y="162.59"
         sodipodi:role="line"
         id="tspan329">Groupedcost380USD</tspan><tspan
         x="0 8.5603704 12.833466 18.288015 24.348021 30.71348 35.562576 45.25531 53.133862 58.588413 62.890961 67.133507 348.69083 354.14539 359.59995 365.05447 374.14175 382.32358 388.38361"
         y="176.14"
         sodipodi:role="line"
         id="tspan331">GroupedCosts1580USD</tspan></text>
    <text
       xml:space="preserve"
       transform="matrix(1,0,0,-1,113.452,283.613)"
       style="font-variant:normal;font-weight:bold;font-size:10.9091px;font-family:LMRoman10;-inkscape-font-specification:LMRoman10-Bold;writing-mode:lr-tb;fill:#000000;fill-opacity:1;fill-rule:nonzero;stroke:none"
       id="text337"><tspan
         x="0 8.7272797 18.151651 25.831657 35.316029 339.14209 345.41483 351.68756 357.9603 364.23303"
         y="0"
         sodipodi:role="line"
         id="tspan335">TOTAL12117</tspan></text>
    <text
       xml:space="preserve"
       transform="matrix(1,0,0,-1,487.594,283.613)"
       style="font-variant:normal;font-weight:normal;font-size:10.9091px;font-family:LMRoman10;-inkscape-font-specification:LMRoman10-Regular;writing-mode:lr-tb;fill:#000000;fill-opacity:1;fill-rule:nonzero;stroke:none"
       id="text341"><tspan
         x="0 8.1818247 14.24183"
         y="0"
         sodipodi:role="line"
         id="tspan339">USD</tspan></text>
    <g
       id="g343"
       transform="translate(113.452,277.236)">
      <path
         d="M 0,0 H 396.718"
         style="fill:none;stroke:#000000;stroke-width:0.868;stroke-linecap:butt;stroke-linejoin:miter;stroke-miterlimit:10;stroke-dasharray:none;stroke-opacity:1"
         id="path345" />
    </g>
    <text
       xml:space="preserve"
       transform="matrix(1,0,0,-1,493.098,211.114)"
       style="font-variant:normal;font-weight:normal;font-size:10.9091px;font-family:LMRoman10;-inkscape-font-specification:LMRoman10-Regular;writing-mode:lr-tb;fill:#000000;fill-opacity:1;fill-rule:nonzero;stroke:none"
       id="text349"><tspan
         x="0 6.0600052 9.0905533 14.545103 20.605108 26.059658 30.302208 36.362213 40.635307"
         y="0"
         sodipodi:role="line"
         id="tspan347">Signature</tspan></text>
    <text
       xml:space="preserve"
       transform="matrix(1,0,0,-1,85.039,190.79)"
       style="font-variant:normal;font-weight:bold;font-size:14.3462px;font-family:LMRoman12;-inkscape-font-specification:LMRoman12-Bold;writing-mode:lr-tb;fill:#000000;fill-opacity:1;fill-rule:nonzero;stroke:none"
       id="text353"><tspan
         x="0 16.670284 21.153471 27.74555 40.489281 46.50034 55.466713 61.832123 68.108582 74.700661 83.667038 90.840141 97.1166 101.59978 109.66953 118.6359"
         y="0"
         sodipodi:role="line"
         id="tspan351">WireInstructions</tspan></text>
    <text
       xml:space="preserve"
       transform="matrix(1,0,0,-1,214.725,190.79)"
       style="font-variant:normal;font-weight:normal;font-size:14.3462px;font-family:LMRoman12;-inkscape-font-specification:LMRoman12-Regular;writing-mode:lr-tb;fill:#000000;fill-opacity:1;fill-rule:nonzero;stroke:none"
       id="text357"><tspan
         x="0"
         y="0"
         id="tspan355">/</tspan></text>
    <text
       xml:space="preserve"
       transform="matrix(1,0,0,-1,226.431,190.79)"
       style="font-variant:normal;font-weight:normal;font-size:10.9091px;font-family:LMRoman10;-inkscape-font-specification:LMRoman10-Regular;writing-mode:lr-tb;fill:#000000;fill-opacity:1;fill-rule:nonzero;stroke:none"
       id="text361"><tspan
         x="0 7.7269154 13.181465 19.24147 28.632025 36.519302 41.368397 46.206585 51.661133 57.732048 63.486599 71.361877 75.301155 81.36116 84.693886 90.148438 94.421532 103.51208 108.96664 113.20918 116.23973 121.69428"
         y="0"
         sodipodi:role="line"
         id="tspan359">BankAccountInformation</tspan></text>
    <text
       xml:space="preserve"
       transform="matrix(1,0,0,-1,85.039,170.068)"
       style="font-variant:normal;font-weight:normal;font-size:11.9552px;font-family:LMRoman12;-inkscape-font-specification:LMRoman12-Regular;writing-mode:lr-tb;fill:#000000;fill-opacity:1;fill-rule:nonzero;stroke:none"
       id="text365"><tspan
         x="0 8.2897358 13.492639 19.996267 25.199171 31.702799 36.905701 40.157516 46.010784 50.563324"
         y="0"
         sodipodi:role="line"
         id="tspan363">Benefciary</tspan></text>
    <text
       xml:space="preserve"
       transform="matrix(1,0,0,-1,145.789,170.068)"
       style="font-variant:normal;font-weight:bold;font-size:11.9552px;font-family:LMRoman12;-inkscape-font-specification:LMRoman12-Bold;writing-mode:lr-tb;fill:#000000;fill-opacity:1;fill-rule:nonzero;stroke:none"
       id="text369"><tspan
         x="0 9.5605736 16.098873 23.570873 30.668674"
         y="0"
         sodipodi:role="line"
         id="tspan367">Bank:</tspan></text>
    <text
       xml:space="preserve"
       transform="matrix(1,0,0,-1,102.849,156.519)"
       style="font-variant:normal;font-weight:normal;font-size:10.9091px;font-family:LMRoman10;-inkscape-font-specification:LMRoman10-Regular;writing-mode:lr-tb;fill:#000000;fill-opacity:1;fill-rule:nonzero;stroke:none"
       id="text373"><tspan
         x="0 6.0600052 17.272379 21.211655 28.333115 36.211666"
         y="0"
         sodipodi:role="line"
         id="tspan371">SWIFT:</tspan></text>
    <text
       xml:space="preserve"
       transform="matrix(1,0,0,-1,145.728,156.519)"
       style="font-variant:normal;font-weight:bold;font-size:10.9091px;font-family:LMRoman10;-inkscape-font-specification:LMRoman10-Bold;writing-mode:lr-tb;fill:#000000;fill-opacity:1;fill-rule:nonzero;stroke:none"
       id="text377"><tspan
         x="0 6.9698238 19.939653 24.697111 32.590935 45.496403 54.557499 63.981873 73.602608 86.033524 93.003349 96.487717 102.58591 108.16154 113.91173 120.88155 127.15429 130.63866 137.60847 143.35866"
         y="0"
         sodipodi:role="line"
         id="tspan375">SWIFTCODEplaceholder</tspan></text>
    <text
       xml:space="preserve"
       transform="matrix(1,0,0,-1,102.849,142.969)"
       style="font-variant:normal;font-weight:normal;font-size:10.9091px;font-family:LMRoman10;-inkscape-font-specification:LMRoman10-Regular;writing-mode:lr-tb;fill:#000000;fill-opacity:1;fill-rule:nonzero;stroke:none"
       id="text381"><tspan
         x="0 8.1818247 13.636375 22.726929 27.576023"
         y="0"
         sodipodi:role="line"
         id="tspan379">Name:</tspan></text>
    <text
       xml:space="preserve"
       transform="matrix(1,0,0,-1,138.303,142.969)"
       style="font-variant:normal;font-weight:bold;font-size:10.9091px;font-family:LMRoman10;-inkscape-font-specification:LMRoman10-Bold;writing-mode:lr-tb;fill:#000000;fill-opacity:1;fill-rule:nonzero;stroke:none"
       id="text385"><tspan
         x="0 8.9236441 18.408016 28.226206 42.237854 52.056042 61.540417 73.449883"
         y="0"
         sodipodi:role="line"
         id="tspan383">BANKNAME</tspan></text>
    <text
       xml:space="preserve"
       transform="matrix(1,0,0,-1,102.849,129.42)"
       style="font-variant:normal;font-weight:normal;font-size:10.9091px;font-family:LMRoman10;-inkscape-font-specification:LMRoman10-Regular;writing-mode:lr-tb;fill:#000000;fill-opacity:1;fill-rule:nonzero;stroke:none"
       id="text389"><tspan
         x="0 7.8763704 13.936376 19.99638 24.269474 29.11857 33.42112 37.723667 45.608765 53.335682 61.517506 69.699333 81.817162 89.998985 98.332443 106.66591 114.6961 122.11974 128.17975 134.23975 140.91394 148.64085 156.82268 165.0045 177.12233 185.00089 193.48598 201.6678 209.84962 217.72818 224.85292"
         y="0"
         sodipodi:role="line"
         id="tspan387">Address:BANKADDRESS,BANKCOUNTRY</tspan></text>
    <text
       xml:space="preserve"
       transform="matrix(1,0,0,-1,85.039,108.698)"
       style="font-variant:normal;font-weight:bold;font-size:11.9552px;font-family:LMRoman12;-inkscape-font-specification:LMRoman12-Bold;writing-mode:lr-tb;fill:#000000;fill-opacity:1;fill-rule:nonzero;stroke:none"
       id="text393"><tspan
         x="0 9.7136002 16.4384 23.9104 29.214922 36.686924 40.422924 45.653324 52.19162 59.293011"
         y="0"
         sodipodi:role="line"
         id="tspan391">Consultant</tspan></text>
    <text
       xml:space="preserve"
       transform="matrix(1,0,0,-1,153.462,108.698)"
       style="font-variant:normal;font-weight:normal;font-size:11.9552px;font-family:LMRoman12;-inkscape-font-specification:LMRoman12-Regular;writing-mode:lr-tb;fill:#000000;fill-opacity:1;fill-rule:nonzero;stroke:none"
       id="text397"><tspan
         x="0 9.7506609 18.040398 23.243299 29.746929 34.949833 41.453461 46.656364 49.908176 55.761444 60.313984 70.401779 78.856499 85.36013 89.977226 94.52977 100.38303 110.13847 115.32942 123.79131"
         y="0"
         sodipodi:role="line"
         id="tspan395">/BenefciaryCustomer:</tspan></text>
    <text
       xml:space="preserve"
       transform="matrix(1,0,0,-1,103.115,95.149)"
       style="font-variant:normal;font-weight:normal;font-size:10.9091px;font-family:LMRoman10;-inkscape-font-specification:LMRoman10-Regular;writing-mode:lr-tb;fill:#000000;fill-opacity:1;fill-rule:nonzero;stroke:none"
       id="text403"><tspan
         x="0 8.1818247 13.636375 22.726929 27.576023 35.450211 43.328762 48.783314 54.843319 59.145866 65.205872 68.23642 72.478966 77.933517 83.698982 91.574257 99.756081 105.21063 114.30119"
         y="0"
         sodipodi:role="line"
         id="tspan399">Name:ConsultantName</tspan><tspan
         x="-0.266 3.6732759 11.400191 19.582016 27.763842"
         y="13.549"
         sodipodi:role="line"
         id="tspan401">IBAN:</tspan></text>
    <text
       xml:space="preserve"
       transform="matrix(1,0,0,-1,137.545,81.6)"
       style="font-variant:normal;font-weight:bold;font-size:10.9091px;font-family:LMRoman10;-inkscape-font-specification:LMRoman10-Bold;writing-mode:lr-tb;fill:#000000;fill-opacity:1;fill-rule:nonzero;stroke:none"
       id="text407"><tspan
         x="0 8.9236441 14.502558 20.08147 25.649475 31.22839 36.807304 42.375309 47.954224 53.533134 59.112049 64.680054 70.258965 75.837883 81.405884 86.984802 92.563713 98.142624 103.71063 109.28954 114.86846 120.43646 126.01538 131.59428 137.1732 142.74121 148.32013 153.89903 159.46704 165.04596 170.62486 176.20378 182.47652 188.74925"
         y="0"
         sodipodi:role="line"
         id="tspan405">B..............................222</tspan></text>
    <path
       style="opacity:0.994239;fill:none;stroke:#df003b;stroke-width:0.75"
       d="m 108.33546,418.94159 0.76555,-50.18372 405.20304,2.19446 v 48.25511 z"
       id="path736" />
  </g>
</svg>
